<?xml version="1.0" encoding="UTF-8"?>
<svg id="Layer_2" data-name="Layer 2" xmlns="http://www.w3.org/2000/svg" viewBox="0 0 1012 686">
  <defs>
    <style>
      .cls-1 {
        fill: #ffdac9;
      }

      .cls-2 {
        fill: #ae3537;
      }
    </style>
  </defs>
  <g id="Layer_1-2" data-name="Layer 1">
    <rect id="rect2229" class="cls-2" width="1012" height="686"/>
    <g id="g2759">
      <g id="g2757">
        <path id="path2746" class="cls-1" d="M395.22,362.29l-4.81-18.94h3.15l3.67,14.87h.52l3.93-14.87h3.58l3.93,14.87h.52l3.67-14.87h3.15l-4.81,18.94h-4.37l-3.67-14.18h-.52l-3.67,14.18h-4.28Z"/>
        <path id="path2747" class="cls-1" d="M420.13,362.29v-18.94h12.59v2.68h-9.7v5.45h9.18v2.68h-9.18v5.45h9.7v2.68h-12.59Z"/>
        <path id="path2748" class="cls-1" d="M437.44,362.29v-18.94h2.88v16.26h9.26v2.68h-12.15Z"/>
        <path id="path2749" class="cls-1" d="M453.34,362.29v-18.94h2.88v16.26h9.26v2.68h-12.15Z"/>
        <path id="path2750" class="cls-1" d="M469.25,362.29v-18.94h4.2l7.78,14.7h.52v-14.7h2.88v18.94h-4.2l-7.78-14.7h-.52v14.7h-2.88Z"/>
        <path id="path2751" class="cls-1" d="M489.96,362.29v-18.94h12.59v2.68h-9.7v5.45h9.18v2.68h-9.18v5.45h9.7v2.68h-12.59Z"/>
        <path id="path2752" class="cls-1" d="M506.22,356.41h2.88c0,.95.44,1.73,1.31,2.42s2.01,1.04,3.32,1.04c1.49,0,2.62-.26,3.32-.78s1.05-1.21,1.05-2.08c0-1.38-1.14-2.25-3.32-2.68l-3.67-.69c-1.49-.26-2.62-.86-3.41-1.73s-1.14-1.99-1.14-3.29c0-1.56.61-2.94,1.84-3.98,1.22-1.04,2.88-1.56,4.98-1.56,2.27,0,4.11.61,5.33,1.73,1.22,1.12,1.92,2.59,1.92,4.32h-2.88c0-.95-.44-1.73-1.22-2.42s-1.84-1.04-3.15-1.04c-1.22,0-2.18.26-2.88.86-.7.52-1.05,1.21-1.05,1.99,0,1.3.96,2.16,2.88,2.59l2.97.52c1.92.35,3.32.95,4.28,1.73s1.31,1.99,1.31,3.46c0,1.64-.61,2.94-1.92,3.98s-3.06,1.56-5.33,1.56-4.11-.61-5.51-1.73c-1.22-1.04-1.92-2.42-1.92-4.24Z"/>
        <path id="path2753" class="cls-1" d="M524.48,356.41h2.88c0,.95.44,1.73,1.31,2.42s2.01,1.04,3.32,1.04c1.49,0,2.62-.26,3.32-.78s1.05-1.21,1.05-2.08c0-1.38-1.14-2.25-3.32-2.68l-3.67-.69c-1.49-.26-2.62-.86-3.41-1.73s-1.14-1.99-1.14-3.29c0-1.56.61-2.94,1.84-3.98,1.22-1.04,2.88-1.56,4.98-1.56,2.27,0,4.11.61,5.33,1.73,1.22,1.12,1.92,2.59,1.92,4.32h-2.88c0-.95-.44-1.73-1.22-2.42s-1.84-1.04-3.15-1.04c-1.22,0-2.18.26-2.88.86-.7.52-1.05,1.21-1.05,1.99,0,1.3.96,2.16,2.88,2.59l2.97.52c1.92.35,3.32.95,4.28,1.73s1.31,1.99,1.31,3.46c0,1.64-.61,2.94-1.92,3.98s-3.06,1.56-5.33,1.56-4.11-.61-5.51-1.73c-1.22-1.04-1.92-2.42-1.92-4.24Z"/>
        <path id="path2754" class="cls-1" d="M565.12,355.8h2.97c-.17.78-.52,1.56-.87,2.33-.44.78-.96,1.47-1.66,2.16-.7.69-1.57,1.21-2.62,1.64s-2.18.61-3.41.61c-2.53,0-4.72-.95-6.47-2.77s-2.62-4.15-2.62-7,.87-5.19,2.62-7,3.93-2.77,6.47-2.77c2.27,0,4.11.61,5.68,1.9,1.49,1.3,2.53,2.85,2.97,4.67h-2.97c-.44-1.3-1.22-2.25-2.18-2.94s-2.1-1.04-3.41-1.04c-1.84,0-3.32.61-4.54,1.9s-1.75,2.94-1.75,5.1.61,3.8,1.75,5.1c1.22,1.3,2.71,1.9,4.54,1.9,1.49,0,2.62-.43,3.58-1.21.96-.52,1.57-1.47,1.92-2.59Z"/>
        <path id="path2755" class="cls-1" d="M572.29,362.29v-18.94h2.88v16.26h9.26v2.68h-12.15Z"/>
        <path id="path2756" class="cls-1" d="M586.97,354.68v-11.33h2.88v11.33c0,1.56.44,2.77,1.31,3.72.87.95,2.01,1.38,3.41,1.38s2.53-.43,3.41-1.38,1.31-2.16,1.31-3.72v-11.33h2.88v11.33c0,2.33-.7,4.24-2.1,5.71-1.4,1.47-3.23,2.16-5.51,2.16s-4.11-.69-5.51-2.16-2.1-3.37-2.1-5.71Z"/>
        <path id="path2757" class="cls-1" d="M607.42,362.29v-18.94h8.48c1.57,0,2.88.52,3.93,1.56,1.05,1.04,1.57,2.25,1.57,3.72,0,1.21-.35,2.25-1.05,3.11-.26.35-.61.69-1.05.95v.17c.44.26.79.61,1.14.95.79.95,1.14,1.99,1.14,3.2,0,1.47-.52,2.77-1.57,3.72-1.05,1.04-2.27,1.56-3.85,1.56h-8.74ZM610.31,351.57h5.51c.79,0,1.4-.26,1.92-.78.52-.52.79-1.21.79-1.99s-.26-1.47-.79-1.99c-.52-.52-1.14-.78-1.92-.78h-5.51v5.53ZM610.31,359.69h5.77c.79,0,1.4-.26,1.92-.78.52-.52.79-1.21.79-1.99s-.26-1.47-.79-1.99c-.52-.52-1.14-.78-1.92-.78h-5.77v5.53Z"/>
      </g>
      <path id="path2758" class="cls-1" d="M531.04,175.86c-2.45,2.59-4.28,6.14-5.07,10.29h-39.85c-.79-4.15-2.62-7.7-5.07-10.29l25-28.28,25,28.28ZM564.51,224.72h-116.85l-9.79-57.85,22.37,12.62c-1.84,3.2-2.88,7.18-2.88,11.5,0,10.64,6.55,19.28,14.6,19.28,6.82,0,12.5-6.14,14.16-14.44h39.85c1.66,8.3,7.34,14.44,14.16,14.44,8.04,0,14.6-8.65,14.6-19.28,0-4.32-1.05-8.21-2.88-11.5l22.37-12.62-9.7,57.85Z"/>
      <path id="path2759" class="cls-1" d="M492.85,275.39c-8.3,0-15.38,6.05-15.38,16.77s7.43,16.77,15.73,16.77c8.22-.26,14.94-6.23,14.94-16.77.09-10.72-6.99-16.77-15.29-16.77M543.1,297.09c.17.52.26,1.04.44,1.56.17-.69.44-1.3.61-1.99h0l9.44-28.53-1.4-4.06h14.07l11.27,32.77.26.86c.17.43.26.78.35,1.21l10.05-34.85h12.93l-16.87,55.77h-11.27l-12.24-36.23-12.15,36.23h-11.27l-16.78-55.77h12.93l9.61,33.03ZM642.47,301.67v-37.61h12.5v56.12h-15.03l-22.9-37.61v37.61h-12.5v-56.12h15.03l22.9,37.61ZM439.27,263.97c12.15,0,21.94,8.65,21.94,19.28,0,6.92-5.42,14.79-14.68,16.34l16.26,20.49h-15.38l-19.75-28.53h11.62c5.16,0,9.35-3.72,9.35-8.3s-4.2-8.3-9.35-8.3h-11.62v45.14h-12.5v-56.12h24.12ZM492.85,263.2c16.95,0,29.1,13.75,29.1,28.88s-11.8,28.45-28.32,28.88h-.79c-16.95,0-29.1-13.75-29.1-28.88s12.15-28.88,29.1-28.88M386.22,263.2c10.75,0,19.58,5.53,24.56,13.4l-12.15,5.1c-2.8-4.15-7.34-6.31-12.41-6.31-8.3,0-15.38,6.05-15.38,16.77s7.43,16.77,15.73,16.77c4.89-.17,9.26-2.33,11.97-6.31l12.15,5.1c-4.89,7.7-13.46,13.14-23.77,13.4h-.79c-16.95,0-29.1-13.75-29.1-28.88s12.24-29.05,29.19-29.05"/>
    </g>
  </g>
</svg>